<svg height="512pt" preserveAspectRatio="xMidYMid meet" viewBox="0 0 512 512" width="512pt" xmlns="http://www.w3.org/2000/svg"><path d="m2380 5084c-19-2-78-9-130-15-332-38-740-181-1021-359-348-221-646-526-850-872-460-777-467-1762-18-2546 356-622 959-1066 1659-1222 186-41 317-54 550-54 159 0 259 5 340 17 582 86 1072 335 1475 748 432 444 669 975 717 1607 40 530-113 1105-413 1555-113 170-191 267-325 400-391 391-885 640-1434 722-100 15-473 28-550 19zm1513-913c120-24 220-58 312-103 92-46 275-162 267-168-4-4-65-19-137-34-347-75-579-195-800-411-112-111-196-211-394-475-85-113-197-256-248-318-295-353-716-694-1030-832-149-66-267-92-400-88-61 2-115 6-119 10-4 5 16 45 43 90l51 83 91 12c199 27 408 127 656 317l80 61-74 3c-80 3-186-19-290-61-34-14-61-21-61-17 0 11 114 109 173 149 106 72 242 111 385 111h78l100 103c127 129 211 231 421 509 92 123 196 255 230 295 35 40 63 75 63 79 0 11-266-4-350-20-41-7-77-12-79-10s6 19 18 39c46 79 189 440 178 451s-316-83-470-145c-174-70-184-77-269-202-82-122-222-286-308-362-30-25-55-45-57-43s17 46 41 98c47 102 99 238 93 244-2 3-37-18-78-46-266-180-527-443-667-672-121-197-187-390-180-527l3-63 53 66c220 275 583 567 897 721 125 61 306 130 326 123 5-2-42-45-105-96-351-283-686-613-923-909-109-137-293-409-383-568-34-60-117-216-184-344-120-233-121-235-124-190-5 59 15 223 39 334 34 153 99 333 180 494l77 154-19 55c-75 217-22 511 144 801 156 271 430 558 742 773 412 286 892 476 1370 543 155 22 499 14 638-14z" transform="matrix(.1 0 0 -.1 0 512)"/></svg>