<?xml version="1.0" standalone="no"?>
<!DOCTYPE svg PUBLIC "-//W3C//DTD SVG 20010904//EN"
 "http://www.w3.org/TR/2001/REC-SVG-20010904/DTD/svg10.dtd">
<svg version="1.0" xmlns="http://www.w3.org/2000/svg"
 width="1110.000000pt" height="1110.000000pt" viewBox="0 0 1110.000000 1110.000000"
 preserveAspectRatio="xMidYMid meet">
<metadata>
Created by potrace 1.16, written by Peter Selinger 2001-2019
</metadata>
<g transform="translate(0.000000,1110.000000) scale(0.100000,-0.100000)"
fill="#000000" stroke="none">
<path d="M5215 10873 c-22 -1 -103 -7 -180 -13 -179 -14 -459 -53 -650 -91
-1270 -251 -2359 -924 -3110 -1919 -391 -519 -677 -1110 -854 -1765 -81 -300
-137 -615 -193 -1090 -15 -132 -15 -758 0 -890 34 -289 75 -556 113 -750 211
-1063 740 -2025 1502 -2737 836 -779 1863 -1235 3077 -1368 376 -40 884 -40
1260 0 1214 133 2242 589 3077 1368 550 514 981 1160 1259 1890 175 462 274
901 356 1597 15 132 15 758 0 890 -105 886 -254 1440 -546 2031 -295 598 -649
1074 -1111 1494 -890 810 -1985 1261 -3275 1350 -131 9 -625 11 -725 3z m720
-63 c161 -12 465 -48 480 -58 5 -4 20 -5 33 -3 12 1 22 -2 22 -8 0 -6 12 -8
32 -4 24 5 29 3 23 -7 -6 -9 0 -10 25 -5 24 5 31 4 25 -5 -6 -9 1 -10 26 -5
22 4 29 3 21 -3 -18 -12 49 -26 81 -17 14 4 18 3 9 -3 -9 -6 14 -16 70 -31 46
-12 151 -44 233 -71 83 -27 211 -67 285 -90 269 -83 567 -210 760 -325 30 -18
111 -65 180 -105 298 -174 617 -407 869 -633 113 -102 213 -208 391 -412 52
-60 151 -170 220 -244 69 -75 136 -152 149 -171 13 -19 34 -43 45 -53 12 -10
14 -15 6 -11 -8 4 5 -12 30 -37 108 -106 397 -585 495 -820 68 -161 183 -491
211 -604 14 -55 36 -138 49 -185 35 -120 101 -514 115 -680 5 -58 14 -161 21
-230 8 -87 10 -247 6 -525 l-7 -400 -25 -49 c-14 -27 -26 -63 -26 -80 l-1 -31
-9 30 c-6 21 -7 11 -4 -35 10 -141 -34 -446 -79 -551 -19 -43 -19 -36 -1 52
31 144 7 73 -55 -169 -34 -136 -63 -262 -63 -280 0 -18 -3 -28 -7 -22 -3 5
-16 -23 -29 -63 -73 -231 -249 -655 -342 -825 -22 -40 -37 -78 -33 -84 4 -6 3
-8 -3 -5 -10 6 -40 -50 -35 -65 1 -5 -2 -8 -8 -8 -5 0 -17 -14 -26 -31 -9 -18
-11 -28 -4 -24 9 6 9 2 1 -14 -7 -11 -14 -21 -17 -21 -3 0 -2 6 2 12 5 10 4
10 -6 1 -7 -6 -14 -22 -15 -36 -3 -29 -43 -101 -148 -270 -141 -228 -276 -391
-497 -602 -41 -38 -68 -61 -60 -50 10 15 -77 -62 -120 -105 -3 -3 -39 -35 -80
-70 -41 -35 -86 -75 -100 -89 -107 -110 -335 -291 -465 -370 -58 -35 -235
-114 -241 -108 -3 2 53 41 123 87 546 357 1054 861 1420 1410 453 678 731
1424 843 2260 11 84 20 166 20 184 l-1 31 -15 -35 c-9 -19 -20 -73 -24 -120
-12 -133 -62 -394 -112 -585 -26 -102 -127 -415 -140 -435 -7 -12 -8 -10 -3 5
99 304 177 653 219 970 20 152 39 355 34 361 -4 4 -10 -34 -39 -286 -6 -47
-13 -92 -16 -100 -6 -14 -10 -42 -13 -95 -1 -11 -4 -27 -7 -35 -3 -8 -7 -37
-9 -65 -2 -27 -9 -51 -14 -53 -5 -2 -7 -15 -4 -29 5 -19 4 -24 -6 -18 -9 6
-11 -1 -5 -26 5 -27 4 -31 -5 -19 -9 12 -10 6 -5 -23 4 -24 3 -37 -3 -33 -6 3
-18 -27 -27 -67 -21 -87 -150 -481 -165 -505 -10 -15 -11 -15 -5 3 86 267 197
706 182 721 -2 3 -10 -24 -17 -58 -6 -35 -18 -81 -25 -103 -8 -22 -16 -51 -19
-65 -11 -53 -49 -181 -53 -177 -2 3 9 58 26 123 37 148 93 433 88 448 -2 6 -9
-18 -15 -54 -6 -36 -26 -125 -43 -199 -28 -114 -34 -131 -42 -110 -9 21 -11
22 -14 5 -3 -10 0 -23 6 -29 6 -6 11 -18 11 -26 -1 -10 -6 -7 -15 9 -14 24
-14 24 -15 3 0 -12 5 -25 10 -28 6 -3 10 -12 10 -18 0 -7 -7 -4 -14 5 -12 16
-15 10 -31 -48 -32 -119 -25 -60 10 81 32 129 48 226 22 128 -10 -34 -15 -41
-27 -33 -21 14 -30 12 -30 -4 0 -9 7 -12 20 -9 14 4 20 0 20 -11 0 -19 -5 -20
-31 -6 -10 6 -19 17 -19 25 0 8 -7 15 -15 15 -8 0 -15 8 -15 17 0 9 -3 14 -6
10 -10 -9 7 -48 18 -41 6 4 8 -1 4 -15 -3 -11 -9 -30 -12 -42 -6 -19 -6 -20
-20 -2 -11 14 -14 15 -14 3 0 -8 -10 3 -21 25 -22 44 -39 65 -39 48 0 -6 7
-16 15 -23 8 -7 12 -16 9 -21 -3 -5 -21 7 -40 27 -19 21 -37 34 -41 31 -3 -4
7 -18 23 -32 16 -14 25 -25 20 -25 -6 0 -1 -6 10 -14 12 -10 21 -11 25 -4 4 6
12 2 18 -11 7 -12 16 -19 21 -16 14 9 22 -38 11 -65 -5 -14 -10 -20 -10 -13
-1 6 -4 20 -7 30 -5 15 -4 15 5 3 9 -12 11 -11 11 9 0 16 -4 21 -14 18 -9 -4
-17 2 -21 14 -4 10 -11 16 -17 13 -5 -3 -27 11 -49 32 -31 31 -41 36 -51 25
-11 -10 -9 -11 6 -5 13 5 17 4 13 -3 -4 -6 -1 -14 5 -17 7 -3 0 -3 -17 1 -16
4 -58 8 -92 8 -68 0 -71 14 -5 19 23 2 45 6 49 10 7 7 -67 3 -97 -5 -8 -2 -18
-12 -22 -22 -4 -9 -13 -17 -20 -16 -10 0 -10 2 0 6 22 9 13 25 -10 18 -19 -5
-17 -2 7 14 18 12 24 21 15 21 -9 0 -25 -7 -36 -15 -12 -8 -24 -11 -28 -8 -4
4 -17 8 -29 10 l-22 3 22 -19 c18 -15 20 -20 8 -25 -8 -3 -14 0 -12 7 1 7 -3
11 -10 10 -7 -2 -10 7 -7 23 3 16 1 23 -6 19 -5 -3 -11 -16 -11 -28 -1 -17 -2
-18 -6 -4 -2 9 -9 17 -14 17 -6 0 -8 -4 -4 -9 3 -6 -3 -15 -14 -20 -29 -16
-38 -13 -15 5 18 15 18 15 -5 10 -14 -3 -31 0 -38 5 -9 8 -11 6 -8 -10 2 -13
0 -19 -6 -15 -10 6 -8 72 4 90 5 8 -6 9 -39 2 -25 -6 -47 -8 -49 -6 -2 2 0 21
5 43 8 33 6 42 -7 53 -13 9 -14 12 -2 13 8 0 9 3 3 5 -6 3 -9 17 -8 32 2 15 1
21 -2 15 -10 -23 -24 -14 -22 14 1 16 -7 41 -17 57 l-19 29 -22 -104 c-113
-538 -333 -1055 -655 -1535 -204 -305 -529 -655 -834 -899 -269 -215 -470
-345 -755 -489 -476 -241 -933 -377 -1488 -443 -184 -22 -677 -25 -857 -5
-1039 114 -1893 518 -2610 1236 -344 344 -587 680 -800 1106 -237 474 -379
972 -430 1510 -23 239 -16 706 14 927 69 507 205 953 422 1384 728 1446 2195
2349 3814 2349 1079 0 2085 -393 2892 -1129 356 -324 712 -796 928 -1230 54
-108 66 -122 71 -83 2 9 7 35 12 57 4 22 5 53 1 68 -6 20 -4 30 7 34 7 3 12 9
9 13 -3 4 2 11 11 14 8 3 12 10 9 16 -3 5 -1 10 5 10 6 0 10 11 8 24 -2 17 7
36 27 57 17 18 21 27 10 19 -15 -12 -14 -8 5 17 14 18 30 30 36 28 7 -2 10 4
7 15 -4 15 -1 18 17 15 18 -3 20 -2 10 10 -11 14 -7 19 13 16 4 0 7 6 7 15 0
9 5 12 12 8 7 -5 9 -2 5 8 -8 22 3 30 20 16 11 -9 12 -7 7 7 -5 12 -4 16 3 12
7 -5 9 1 5 15 -4 17 -2 20 11 15 12 -4 14 -2 10 11 -5 14 -3 15 8 5 7 -7 18
-13 24 -13 5 1 -1 10 -15 22 -21 17 -22 20 -5 15 11 -4 26 -3 34 2 11 7 10 10
-4 18 -16 9 -16 11 -1 16 11 5 15 3 10 -4 -4 -7 -1 -10 7 -7 8 3 14 11 14 19
0 8 7 14 15 14 8 0 14 -7 12 -15 -2 -8 0 -11 4 -7 12 12 13 36 2 44 -7 4 -8 1
-3 -7 5 -9 4 -11 -4 -6 -8 6 -9 12 -2 20 6 7 8 16 5 19 -4 4 3 5 15 2 11 -2
21 0 21 6 0 5 5 9 11 9 8 0 8 -5 -1 -15 -7 -8 -17 -12 -22 -9 -6 4 -5 -2 1
-14 6 -11 17 -19 26 -18 23 3 29 15 11 22 -13 5 -14 9 -5 20 6 8 8 14 3 14 -4
0 1 6 11 14 26 18 42 9 18 -11 -17 -13 -16 -13 4 -3 12 5 25 15 29 22 4 6 3 8
-4 4 -13 -8 -23 7 -27 42 -3 26 -2 25 31 -13 19 -22 31 -31 28 -21 -6 15 -4
17 6 11 13 -8 -11 37 -54 100 -13 19 -15 25 -5 18 9 -7 18 -10 21 -7 3 3 5 -1
5 -8 -1 -7 3 -13 8 -13 6 0 9 4 7 9 -2 5 4 4 12 -4 21 -17 20 -31 -1 -24 -14
4 -15 3 -5 -4 8 -5 13 -13 12 -18 -1 -5 3 -10 9 -12 7 -2 9 4 5 15 -4 12 4 7
21 -12 29 -32 26 -24 -12 37 -14 23 -18 35 -9 32 9 -4 14 3 14 20 0 14 -4 23
-9 21 -4 -3 -10 -1 -13 4 -4 5 -2 12 3 15 5 3 35 -29 67 -71 70 -95 77 -104
68 -79 -5 14 -4 17 5 12 8 -6 7 2 -3 23 -18 34 -29 41 -20 14 5 -15 3 -15 -10
1 -18 22 -21 41 -6 31 6 -4 7 1 4 12 -4 13 0 11 16 -7 22 -25 22 -24 -1 15
-12 22 -37 63 -54 90 -48 77 -49 83 -9 40 41 -44 39 -38 -18 50 -45 69 -18 40
71 -75 65 -84 211 -304 261 -392 62 -111 41 -57 -33 85 -563 1079 -1486 1916
-2615 2371 -414 167 -883 289 -1327 346 -243 31 -403 40 -685 40 -459 0 -842
-44 -1259 -145 -79 -20 -146 -34 -148 -32 -1 2 63 23 144 45 163 46 428 104
568 123 49 7 84 14 77 17 -17 5 -280 -34 -457 -68 -858 -169 -1655 -540 -2305
-1076 -578 -476 -1021 -1040 -1352 -1720 -48 -100 -88 -185 -88 -190 0 -5 45
79 99 186 54 107 128 245 165 305 37 61 77 128 88 150 27 53 159 249 238 355
237 314 612 706 884 922 265 211 516 373 744 479 112 53 147 61 60 14 -83 -44
-288 -166 -288 -171 0 -2 24 10 53 27 71 42 318 161 324 156 2 -3 -40 -28 -94
-57 -407 -219 -801 -519 -1159 -882 -182 -184 -216 -221 -348 -386 -320 -400
-572 -833 -767 -1317 -27 -66 -48 -115 -49 -108 0 15 84 233 117 303 14 30 39
84 55 119 37 80 158 305 256 476 151 263 305 480 521 730 52 61 77 94 57 75
-44 -41 -236 -270 -323 -385 -315 -419 -587 -939 -756 -1445 -328 -984 -370
-2026 -121 -3025 361 -1446 1294 -2638 2599 -3321 228 -119 459 -218 710 -305
77 -27 135 -49 130 -49 -35 -1 -444 128 -640 202 -255 96 -437 191 -700 363
-203 132 -522 386 -510 406 3 5 0 6 -7 4 -13 -5 -74 48 -80 70 -2 6 -6 9 -9 8
-3 -1 -37 30 -75 70 -38 39 -116 117 -174 173 -58 57 -105 108 -105 116 -1 7
-6 12 -12 11 -23 -5 -247 251 -365 417 -57 80 -244 389 -344 566 -140 251
-307 643 -366 859 -16 61 -38 135 -49 165 -25 66 -32 91 -58 195 -11 44 -30
118 -43 165 -15 58 -23 113 -23 172 0 49 -3 88 -6 88 -4 0 -7 31 -7 70 -1 58
-6 78 -33 127 l-32 57 -8 260 c-21 686 -1 1037 82 1461 52 266 60 301 94 390
12 33 30 98 39 145 9 47 32 123 51 170 19 47 43 119 54 160 27 104 110 309
189 465 289 571 489 873 845 1272 373 417 848 784 1272 984 231 108 752 319
955 386 336 111 907 223 1152 227 53 0 89 4 80 8 -9 4 16 7 56 6 39 -1 75 2
79 5 10 11 553 8 708 -3z m-2966 -801 c-596 -342 -1122 -807 -1541 -1364 -85
-113 -213 -304 -277 -412 -54 -92 -65 -96 -15 -5 355 640 983 1301 1577 1659
113 68 353 193 371 193 5 0 -46 -32 -115 -71z m-7 -50 c-56 -33 -100 -64 -97
-69 3 -5 -5 -14 -17 -20 -22 -11 -22 -10 -4 4 34 27 3 17 -44 -14 -25 -16 -45
-35 -45 -42 0 -6 -6 -13 -14 -16 -9 -3 -11 0 -6 8 6 9 3 9 -14 1 -25 -14 -28
-23 -3 -14 27 10 5 -8 -93 -75 -49 -34 -103 -73 -120 -87 -16 -15 20 8 81 49
62 42 115 76 119 76 4 0 19 8 33 18 50 34 122 73 121 65 -3 -20 3 -22 26 -7
14 9 25 14 25 12 0 -3 -47 -35 -105 -72 -58 -37 -105 -70 -105 -72 0 -6 2 -4
75 41 77 48 165 97 165 91 0 -2 -18 -15 -39 -27 -25 -14 -37 -27 -34 -36 3 -8
12 -12 19 -9 7 3 16 1 19 -5 4 -5 3 -9 -2 -8 -22 4 -34 -2 -26 -13 13 -21 12
-37 -2 -32 -14 6 -15 -12 -2 -34 5 -7 2 -15 -8 -18 -9 -4 -14 -12 -11 -19 3
-9 -2 -11 -15 -8 -11 3 -17 8 -14 11 2 3 0 11 -6 19 -13 15 2 18 18 2 7 -7 12
-5 17 6 4 12 2 16 -7 12 -8 -3 -20 -1 -28 4 -12 7 -12 9 1 10 8 1 20 1 27 0
10 -1 10 7 3 39 0 3 -5 -3 -11 -13 -6 -9 -14 -15 -20 -12 -5 4 -9 2 -9 -4 0
-5 -15 -19 -34 -30 -31 -20 -40 -40 -23 -57 3 -4 5 3 2 15 -4 23 5 27 23 9 9
-9 11 -6 7 11 -3 14 0 21 8 18 7 -2 12 -8 13 -13 2 -20 17 -44 24 -39 5 3 11
1 15 -5 4 -6 11 -7 17 -4 7 4 8 2 4 -5 -6 -9 -11 -9 -22 0 -11 9 -14 9 -14 -1
0 -9 -3 -10 -13 -1 -10 8 -14 7 -14 -3 0 -8 8 -13 19 -11 10 2 18 0 18 -6 0
-5 -7 -9 -15 -9 -8 0 -15 -4 -15 -10 0 -5 -7 -10 -15 -10 -8 0 -15 -4 -15 -10
0 -5 -7 -10 -15 -10 -8 0 -15 -4 -15 -10 0 -14 22 -8 38 10 12 13 13 13 8 -3
-4 -12 3 -21 27 -31 36 -16 22 -21 -17 -6 -15 5 -26 6 -26 0 0 -5 10 -12 21
-15 20 -7 20 -8 -7 -26 -16 -10 -23 -19 -16 -19 15 0 16 -56 2 -65 -7 -4 -9 2
-4 19 3 15 2 26 -4 26 -5 0 -10 -19 -10 -42 1 -69 -3 -75 -17 -33 l-14 40 5
-40 c3 -22 7 -51 10 -65 4 -23 3 -23 -9 -8 -8 10 -17 15 -20 11 -4 -3 -8 5 -8
18 -1 16 -3 18 -6 7 -2 -9 1 -27 7 -39 10 -17 9 -24 -4 -37 -15 -15 -16 -14
-16 6 0 13 -4 20 -10 17 -6 -4 -4 -17 5 -36 18 -35 10 -59 -11 -32 -9 12 -13
13 -14 5 0 -8 -5 -10 -12 -6 -7 4 -3 -4 10 -18 12 -13 22 -28 22 -34 0 -5 -4
-3 -9 5 -8 12 -13 12 -24 3 -12 -10 -16 -9 -21 4 -4 9 -9 14 -13 11 -3 -4 2
-18 11 -31 20 -31 20 -36 1 -36 -8 0 -15 5 -15 11 0 8 -5 7 -16 -2 -14 -12
-13 -16 12 -37 20 -16 22 -20 8 -13 -17 8 -25 7 -34 -4 -9 -11 -17 -12 -31 -4
-10 5 -19 7 -19 4 0 -3 0 -7 0 -10 0 -3 1 -4 3 -2 2 1 11 -6 21 -15 21 -22 12
-40 -17 -33 -16 4 -26 -1 -36 -17 l-14 -23 23 20 24 20 -22 -32 c-13 -18 -35
-42 -50 -53 -15 -11 -106 -98 -202 -193 -96 -95 -166 -161 -155 -147 l20 25
-22 -18 c-12 -11 -19 -25 -17 -32 3 -7 1 -16 -5 -20 -7 -3 -11 2 -11 13 0 23
-23 35 -38 20 -7 -7 -5 -17 8 -31 11 -11 17 -24 14 -28 -9 -15 -32 2 -39 28
-5 20 -8 23 -21 13 -12 -11 -12 -14 3 -25 14 -11 15 -16 5 -28 -9 -10 -10 -17
-2 -22 5 -3 10 -12 10 -18 0 -7 -7 -3 -15 7 -12 16 -12 22 -2 35 10 12 9 14
-3 10 -17 -5 -71 46 -61 57 3 4 1 4 -5 1 -6 -3 -29 -7 -52 -8 -22 -2 -38 -7
-36 -11 3 -5 15 -6 26 -2 14 4 18 2 14 -5 -5 -7 3 -9 26 -4 30 6 32 5 19 -10
-12 -15 -10 -17 14 -17 24 0 26 -2 14 -16 -11 -13 -10 -17 4 -26 10 -5 15 -13
12 -19 -4 -5 -21 6 -39 25 -39 42 -74 52 -131 39 -43 -10 -84 4 -67 22 4 5 -1
5 -11 2 -11 -4 -16 -3 -12 3 3 6 3 10 -2 10 -4 0 -8 23 -9 50 -1 48 0 49 18
33 10 -9 18 -14 19 -12 0 2 2 12 4 21 2 9 -4 23 -13 30 -13 11 -14 11 -7 -1 5
-9 4 -12 -3 -7 -6 3 -13 2 -16 -2 -3 -5 -15 -8 -28 -7 -13 1 -29 -2 -35 -8
-19 -14 -16 8 2 23 8 7 15 9 15 5 0 -4 7 -2 15 5 14 12 19 7 16 -13 -1 -5 3
-6 9 -2 6 3 8 10 5 15 -12 19 41 -1 58 -21 13 -17 15 -25 6 -35 -6 -8 -8 -14
-3 -14 5 0 2 -5 -6 -10 -13 -9 -13 -10 0 -11 8 -1 20 -3 25 -3 17 -2 17 -20 0
-22 -8 -1 -15 2 -15 8 0 16 -23 3 -26 -14 -1 -11 5 -16 17 -15 10 1 19 5 19 9
0 4 3 7 8 6 4 -1 21 6 37 15 24 14 26 17 6 11 -15 -4 -21 -2 -17 4 10 17 -4
41 -22 35 -10 -3 -7 4 8 15 13 12 27 17 30 12 3 -5 11 0 18 10 7 12 8 20 2 20
-5 0 -10 -5 -10 -11 0 -5 -5 -7 -10 -4 -6 4 -7 12 -3 18 13 21 11 36 -3 30 -8
-3 -12 -14 -10 -29 5 -26 -5 -37 -26 -29 -13 5 -16 35 -9 89 1 5 10 1 20 -8
23 -21 29 -13 26 40 -2 40 1 44 33 35 17 -6 27 25 11 35 -5 3 -6 11 -2 17 4 7
-13 -6 -38 -28 -24 -22 -43 -42 -42 -46 3 -10 -33 -40 -54 -44 -10 -2 -18 -4
-18 -5 0 -1 -8 -3 -17 -5 -10 -2 -18 2 -18 7 0 6 -9 3 -20 -7 -23 -21 -28 -44
-5 -25 8 7 15 9 15 5 0 -4 7 -2 15 5 8 7 15 9 15 5 0 -4 6 -2 14 4 8 7 17 8
20 3 3 -6 0 -15 -8 -21 -20 -17 -56 -22 -56 -8 0 7 -9 1 -20 -13 -11 -14 -20
-19 -20 -11 0 11 -3 11 -15 1 -8 -7 -15 -17 -15 -22 0 -6 7 -4 17 3 15 13 15
12 5 -7 -6 -11 -7 -26 -3 -33 6 -10 10 -9 15 4 5 14 9 15 20 6 10 -8 16 -9 21
-1 3 6 11 8 16 4 6 -3 5 -12 -3 -22 -11 -13 -11 -14 1 -7 10 6 12 4 7 -4 -6
-9 -13 -8 -27 5 -15 14 -21 14 -34 4 -19 -15 -11 -30 14 -25 11 2 27 -3 38
-10 10 -8 13 -15 7 -15 -7 0 -9 -11 -6 -26 4 -20 1 -25 -9 -22 -8 3 -15 10
-15 16 -1 7 -3 14 -4 17 -1 3 -3 10 -4 17 -1 15 -37 19 -54 5 -11 -9 -10 -13
10 -21 12 -5 27 -8 31 -7 5 1 6 -3 3 -8 -4 -5 -2 -12 3 -15 12 -8 8 -37 -5
-36 -5 0 -9 8 -9 18 -1 48 -43 56 -74 14 -11 -16 -27 -29 -35 -29 -9 0 -13 3
-10 6 3 3 11 6 17 6 5 0 12 5 14 12 4 12 -14 12 -33 0 -7 -4 -14 0 -18 8 -3 8
0 17 6 21 7 4 8 3 4 -4 -4 -7 -3 -12 1 -12 5 0 14 9 21 21 7 12 16 18 19 15 8
-7 33 13 33 26 0 6 -8 4 -17 -3 -15 -11 -16 -11 -5 1 18 21 15 34 -5 19 -10
-8 -5 4 11 26 50 69 168 215 172 215 9 0 -14 -35 -35 -54 -12 -11 -21 -23 -21
-27 0 -10 25 -5 42 9 8 6 17 10 20 7 3 -3 11 2 19 12 12 15 12 16 -1 8 -22
-13 -42 -15 -38 -3 2 5 7 9 12 8 4 -1 20 10 35 24 15 15 30 24 33 21 3 -3 11
3 19 12 13 16 12 17 -3 4 -10 -7 -18 -10 -18 -5 0 4 -11 -3 -25 -16 -14 -13
-25 -19 -25 -13 0 12 45 55 52 48 2 -3 15 7 29 23 l24 27 -27 -24 c-41 -36
-34 -13 10 34 l37 40 -37 -34 c-21 -19 -38 -30 -38 -24 0 6 82 96 182 200 167
173 170 177 36 44 -80 -79 -177 -179 -215 -221 -37 -43 -72 -75 -77 -72 -5 3
3 15 17 26 15 12 27 26 27 31 0 5 19 30 43 54 23 25 30 35 15 22 -16 -14 -28
-21 -28 -16 0 5 -10 -1 -23 -13 -13 -12 -26 -19 -30 -16 -8 8 23 55 33 49 4
-2 15 4 25 14 9 11 25 18 34 16 12 -2 61 40 147 128 l129 132 -122 -120 c-108
-105 -128 -120 -125 -94 1 3 -6 6 -14 6 -9 0 -55 -43 -102 -94 -84 -91 -109
-125 -82 -108 8 5 11 4 6 -3 -3 -6 1 -9 11 -7 10 1 24 -2 30 -7 13 -11 -13
-51 -82 -124 -18 -18 -30 -35 -29 -37 2 -2 -13 -22 -34 -45 -22 -23 -37 -44
-35 -46 3 -2 -1 -7 -8 -12 -7 -4 -10 -3 -5 4 3 6 2 13 -4 17 -6 4 -8 11 -5 16
15 23 -7 5 -31 -26 -23 -31 -25 -37 -13 -53 13 -15 12 -16 -3 -4 -14 11 -25 0
-90 -95 -41 -59 -92 -136 -113 -170 -21 -35 -40 -63 -42 -63 -14 0 187 313
270 423 37 49 51 61 55 48 2 -6 9 -8 14 -5 7 4 8 2 4 -4 -4 -7 -3 -12 3 -12
15 0 23 18 11 25 -8 5 -7 12 2 23 10 13 8 13 -9 -1 -13 -12 -23 -14 -27 -8 -4
6 2 16 14 23 11 7 20 18 20 25 0 6 10 19 22 27 19 14 23 14 33 -1 12 -16 40
-9 29 8 -3 5 -10 6 -16 3 -7 -4 -8 -2 -4 5 4 6 11 9 16 6 4 -3 13 1 19 9 9 10
7 19 -7 36 l-18 22 -91 -113 c-115 -145 -208 -274 -300 -418 -79 -124 -103
-155 -58 -76 342 602 944 1237 1500 1580 116 72 343 195 360 195 6 0 -36 -28
-93 -61z m-2322 -2785 c-117 -355 -189 -703 -236 -1129 -19 -174 -25 -705 -9
-880 l9 -110 7 70 c4 39 6 95 6 125 l0 55 -8 -45 c-12 -72 0 423 17 685 8 132
22 281 30 330 8 50 21 133 28 185 13 89 39 211 73 340 8 30 20 83 28 117 8 34
19 72 26 85 7 13 12 25 12 28 0 3 3 16 8 29 5 13 10 34 11 46 1 13 5 22 9 19
4 -2 11 5 14 17 4 11 9 19 11 16 2 -2 -5 -30 -16 -63 -53 -153 -128 -467 -170
-713 -26 -155 -60 -468 -58 -541 l1 -55 6 45 6 45 8 -60 c4 -33 12 -179 17
-325 8 -242 25 -493 35 -530 2 -8 2 26 0 75 -15 299 -22 612 -16 690 6 68 9
21 10 -190 2 -235 4 -274 14 -245 9 24 10 66 6 135 -10 141 -9 227 1 195 4
-14 9 -83 11 -155 3 -126 4 -124 9 65 6 193 6 194 8 55 3 -191 14 -395 21
-395 3 0 5 37 4 82 -2 59 0 77 7 63 7 -13 8 37 4 150 -4 122 -2 166 5 155 7
-9 11 -83 10 -198 0 -101 2 -186 5 -190 3 -3 7 28 7 69 2 60 3 66 8 34 4 -22
6 46 5 150 -1 142 0 163 5 85 4 -65 8 -93 12 -75 3 17 7 -8 8 -57 1 -99 18
-119 24 -30 2 31 3 12 2 -43 -3 -110 3 -97 30 65 l14 85 -5 -85 c-3 -47 -7
-103 -10 -125 l-4 -40 16 38 c9 20 21 37 26 37 6 0 9 26 8 63 -5 102 -1 144
10 127 18 -27 11 -148 -15 -267 -4 -16 -1 -23 10 -23 11 0 15 11 15 41 0 24 4
38 10 34 6 -4 10 5 10 21 0 22 2 25 15 14 10 -9 15 -9 15 -1 0 6 4 11 9 11 5
0 13 -19 17 -42 l7 -43 12 40 c11 33 13 36 15 15 1 -23 2 -23 9 -5 7 16 10 10
16 -29 5 -32 10 -44 16 -35 6 10 9 7 9 -11 0 -20 2 -22 10 -10 7 11 10 -2 10
-45 1 -61 23 -115 35 -83 3 8 1 26 -4 41 -6 14 -6 29 -2 31 5 3 11 -7 14 -22
3 -15 9 -36 13 -46 5 -14 4 -17 -4 -12 -7 4 -12 1 -12 -9 0 -12 6 -15 20 -10
14 5 20 2 20 -10 0 -9 4 -14 9 -11 5 3 11 -4 15 -17 3 -12 1 -23 -4 -25 -15
-5 -12 -31 5 -48 8 -9 15 -24 15 -35 0 -11 7 -27 15 -35 17 -17 21 -49 5 -39
-14 9 -8 -16 8 -33 12 -13 16 -34 13 -61 -2 -7 2 -10 9 -6 9 5 10 1 5 -14 -4
-12 -2 -21 4 -21 6 0 11 8 12 18 0 12 2 13 6 3 3 -8 -2 -20 -11 -26 -15 -12
-15 -13 2 -17 11 -3 21 -15 25 -27 3 -14 1 -19 -6 -14 -9 5 -9 3 -1 -8 16 -20
26 -51 14 -44 -14 9 17 -46 32 -57 10 -7 9 -8 -4 -4 -15 4 -16 2 -6 -19 6 -13
14 -22 18 -20 4 2 7 -2 7 -10 0 -8 -4 -12 -9 -9 -4 3 -8 0 -8 -6 0 -6 7 -13
15 -16 8 -4 15 -10 15 -16 0 -5 -4 -6 -10 -3 -20 12 -9 -13 13 -29 15 -12 17
-16 5 -12 -25 8 -22 -9 5 -28 14 -10 16 -14 4 -10 -13 5 -16 2 -11 -10 3 -9
11 -13 18 -9 6 3 6 0 -2 -8 -10 -11 -8 -17 10 -32 18 -15 19 -18 5 -13 -12 4
-17 2 -14 -6 2 -7 9 -12 15 -11 5 1 13 -4 16 -12 3 -10 0 -12 -12 -9 -11 4 -8
-2 8 -15 21 -18 22 -20 5 -15 -17 5 -16 2 5 -15 22 -18 21 -25 -1 -23 -4 1 5
-34 19 -78 14 -43 30 -77 34 -74 5 3 5 10 2 16 -4 6 -2 8 4 4 5 -3 8 -20 5
-37 -2 -17 -1 -29 4 -26 5 3 7 -12 5 -34 -3 -30 -1 -38 9 -34 10 4 14 -4 14
-30 0 -19 -4 -35 -10 -36 -5 0 -1 -4 10 -9 12 -5 14 -9 6 -9 -11 -1 -10 -5 5
-17 10 -8 13 -13 7 -9 -17 8 -17 -10 0 -27 8 -7 12 -19 9 -27 -3 -8 0 -11 5
-8 8 5 10 -2 16 -57 1 -13 6 -22 11 -18 5 3 6 -2 3 -12 -4 -9 -3 -15 2 -12 14
9 21 -20 8 -33 -9 -9 -7 -10 8 -5 18 7 19 6 5 -11 -11 -14 -12 -17 -1 -11 9 6
12 5 9 -5 -3 -8 4 -22 15 -31 11 -10 16 -18 11 -18 -5 0 -2 -5 6 -10 12 -7 10
-11 -10 -19 -14 -5 -19 -10 -12 -10 7 -1 10 -5 7 -11 -3 -5 -1 -10 5 -10 6 0
8 -4 5 -10 -3 -6 4 -10 17 -11 l23 0 -23 -9 -22 -9 19 -32 c11 -18 18 -36 15
-41 -3 -4 0 -8 5 -8 6 0 10 -6 8 -12 -1 -7 4 -12 11 -10 8 1 11 -2 7 -8 -3 -5
-13 -10 -21 -10 -8 0 -14 -6 -14 -12 0 -9 -4 -8 -11 2 -9 13 -10 13 -6 0 4
-15 7 -17 53 -19 14 0 22 -5 19 -11 -4 -6 -10 -8 -14 -6 -4 3 -13 1 -20 -3
-10 -6 -9 -12 4 -25 9 -9 21 -13 27 -10 7 4 8 2 4 -5 -4 -6 -12 -9 -17 -6 -5
4 -9 1 -9 -4 0 -6 10 -11 23 -11 18 0 19 -2 7 -10 -11 -7 -6 -10 20 -11 28 0
31 -2 15 -8 -11 -5 -23 -7 -27 -4 -5 2 -8 -1 -8 -6 0 -6 10 -11 23 -12 12 0
16 -3 10 -6 -18 -7 3 -43 25 -43 13 0 14 -2 3 -9 -18 -12 -5 -32 17 -25 13 5
14 4 3 -4 -14 -10 -6 -36 9 -27 4 3 7 -3 6 -13 0 -9 4 -16 10 -15 7 1 11 -5
10 -15 0 -9 5 -16 11 -15 7 2 12 0 12 -5 -3 -19 2 -33 10 -28 5 3 8 -2 7 -12
0 -9 4 -16 10 -15 7 1 11 -5 10 -15 0 -10 5 -16 14 -14 8 2 12 0 8 -3 -11 -11
11 -47 24 -39 7 4 8 3 4 -5 -8 -12 37 -73 48 -65 3 2 4 1 1 -2 -2 -4 7 -22 22
-40 14 -19 22 -34 18 -34 -4 0 5 -10 19 -21 21 -17 25 -24 14 -30 -11 -7 -10
-9 1 -9 21 0 50 -30 45 -44 -3 -7 6 -21 20 -30 15 -9 26 -22 26 -29 0 -9 -3
-9 -9 1 -9 15 -57 42 -75 42 -6 0 4 -10 21 -22 33 -24 42 -38 22 -38 -8 0 -8
-5 1 -15 10 -12 10 -15 0 -15 -10 0 -10 -3 0 -15 10 -12 10 -15 0 -15 -10 0
-10 -3 0 -15 11 -13 10 -14 -6 -8 -17 6 -17 5 -5 -10 12 -15 12 -17 -4 -11
-12 5 -16 4 -11 -4 3 -6 1 -14 -5 -18 -8 -4 -9 -3 -5 4 10 17 -9 15 -23 -2 -8
-10 -8 -16 2 -25 8 -6 16 -9 19 -6 3 3 10 0 16 -8 9 -10 6 -13 -13 -13 -13 0
-21 4 -19 8 5 7 -11 12 -19 6 -2 -2 -11 3 -19 9 -18 16 -32 5 -17 -14 6 -7 8
-13 4 -13 -5 0 0 -9 9 -19 10 -11 19 -28 21 -38 2 -10 4 -19 4 -20 1 -2 1 -6
2 -10 0 -5 6 -15 12 -23 6 -8 -3 -2 -20 14 -21 19 -30 35 -27 49 2 11 -1 26
-7 34 -7 7 -8 13 -4 13 4 0 2 6 -4 13 -6 8 -9 16 -6 19 3 3 -1 11 -9 17 -12
10 -14 9 -12 -11 1 -13 5 -29 9 -35 9 -15 5 -63 -5 -57 -4 3 -8 0 -8 -7 0 -8
-3 -9 -13 0 -8 6 -17 9 -20 6 -4 -3 -5 -2 -2 2 3 3 -2 15 -12 25 -9 10 -12 18
-6 18 5 0 18 -9 28 -20 10 -11 22 -17 27 -14 5 4 -3 19 -19 36 -16 17 -21 27
-11 23 9 -4 19 -1 24 6 5 8 3 10 -6 4 -8 -5 -11 -4 -6 3 3 6 2 13 -4 17 -6 4
-8 10 -5 15 3 5 1 11 -4 14 -5 4 -8 -2 -6 -11 4 -29 -6 -35 -26 -17 -10 9 -16
20 -14 25 3 4 0 11 -6 15 -8 4 -9 3 -5 -4 4 -7 1 -12 -8 -12 -9 0 -16 -4 -16
-10 0 -5 -8 -7 -17 -3 -10 3 -16 4 -13 2 38 -32 53 -42 42 -28 -19 26 12 32
34 8 15 -16 16 -22 5 -28 -7 -5 -22 -6 -34 -3 -14 3 -18 1 -13 -7 4 -6 11 -9
15 -6 5 2 19 -7 32 -22 21 -23 22 -25 4 -19 -11 5 -26 9 -33 10 -12 2 -43 40
-39 47 1 2 0 3 -2 1 -2 -1 -14 6 -25 15 -21 18 -21 18 -2 -4 20 -24 10 -32
-14 -10 -12 10 -12 9 -2 -5 8 -10 9 -19 3 -22 -5 -3 -29 17 -53 45 l-44 50
-19 -23 c-11 -13 -16 -20 -11 -16 5 4 16 2 25 -5 14 -10 14 -10 3 5 -8 10 -9
19 -3 22 5 4 17 -4 25 -16 14 -20 14 -24 1 -37 -15 -16 1 -38 157 -216 63 -72
60 -70 -31 24 -137 140 -251 283 -386 486 -146 220 -285 463 -401 700 -101
205 -122 237 -49 74 357 -794 901 -1476 1590 -1994 222 -167 454 -312 715
-449 80 -42 142 -76 139 -76 -28 -1 -389 178 -389 192 0 5 -4 7 -8 4 -5 -3
-20 5 -33 17 -13 12 -26 21 -29 19 -3 -1 -14 6 -25 15 -11 9 -21 16 -23 15 -6
-6 -122 70 -122 79 0 5 -4 8 -8 6 -11 -3 -122 74 -122 85 0 4 -6 8 -13 8 -7 0
-23 10 -37 23 -14 12 -41 33 -61 47 -101 70 -356 301 -584 527 -238 237 -267
268 -258 278 5 4 3 5 -4 1 -14 -7 -56 47 -45 59 4 5 2 5 -5 1 -14 -8 -45 33
-36 47 3 6 1 7 -5 3 -14 -8 -75 70 -66 85 4 7 3 9 -4 6 -14 -9 -86 89 -76 104
4 7 3 9 -3 6 -20 -13 -341 503 -327 525 4 6 3 8 -4 5 -11 -8 -191 343 -236
461 -15 39 -32 72 -38 72 -6 0 -7 7 -4 16 4 10 2 13 -6 8 -8 -5 -9 -2 -5 10 4
9 3 15 -2 12 -13 -8 -23 23 -16 48 5 17 4 18 -5 6 -10 -12 -11 -11 -7 8 3 13
3 21 0 18 -8 -8 -34 65 -27 76 3 4 0 8 -6 8 -7 0 -10 6 -7 14 3 8 3 17 -1 21
-4 4 -8 11 -8 16 -1 5 -2 10 -4 12 -1 1 -3 9 -5 17 -16 82 -96 300 -109 300
-15 0 110 -384 191 -590 73 -186 228 -511 323 -675 484 -843 1209 -1539 2065
-1982 88 -45 157 -83 153 -83 -26 -1 -288 126 -423 205 -317 187 -565 381
-914 716 -459 442 -592 608 -894 1119 -248 420 -492 1023 -548 1358 -5 29 -20
87 -34 130 -14 44 -25 101 -25 133 0 31 -7 72 -14 91 -8 19 -20 77 -26 129 -6
52 -17 128 -26 169 -24 121 -30 746 -9 1025 9 121 16 232 15 247 0 15 4 29 10
33 5 3 7 19 3 35 -3 17 -1 30 4 30 6 0 10 19 10 43 -1 50 26 212 47 282 8 28
18 73 21 100 4 28 11 68 16 90 10 39 75 255 86 285 4 8 5 21 4 29 -1 8 2 10 9
6 9 -5 10 -1 5 15 -5 14 -3 20 3 16 14 -8 34 56 26 79 -5 12 -4 16 4 11 6 -4
18 8 28 29 31 67 23 29 -26 -121z m9500 -3983 c-44 -89 -78 -167 -74 -173 5
-7 2 -8 -6 -3 -10 6 -12 4 -7 -9 4 -10 3 -15 -3 -11 -5 3 -16 -8 -25 -24 -18
-35 -19 -45 -4 -35 13 8 10 1 -89 -176 -195 -350 -363 -561 -652 -819 l-95
-85 91 95 c142 147 394 443 394 463 0 8 -56 -41 -94 -83 -130 -145 -225 -241
-311 -317 l-100 -88 91 99 c220 241 314 357 155 192 -68 -70 -126 -125 -129
-122 -3 3 16 28 44 56 44 45 47 51 31 60 -17 10 -16 12 3 39 19 27 58 35 52
10 -1 -6 2 -8 8 -5 8 5 6 13 -4 24 -9 10 -13 22 -9 27 4 5 -13 -10 -38 -34
-45 -42 -75 -48 -42 -8 18 21 18 21 -5 2 -12 -11 -25 -17 -28 -14 -3 3 12 20
33 37 21 17 34 31 31 31 -4 0 -23 -14 -43 -31 -19 -17 -35 -28 -35 -24 0 3
-10 -1 -22 -9 -46 -32 -41 -14 7 31 28 26 38 39 24 30 -19 -11 -29 -13 -37 -5
-8 8 -15 8 -25 0 -8 -7 -18 -8 -22 -4 -5 4 -5 2 -2 -4 4 -7 0 -17 -8 -24 -8
-7 -12 -16 -9 -21 3 -5 -2 -6 -11 -3 -12 5 -13 9 -4 20 6 8 8 14 4 14 -4 0 -2
7 5 15 7 8 10 15 6 15 -4 0 0 14 9 30 9 17 13 30 9 30 -4 0 0 8 7 17 12 15 12
16 -1 8 -8 -6 -17 -10 -20 -11 -3 0 -18 -6 -35 -13 -16 -7 -34 -14 -40 -15 -5
-1 -15 -5 -21 -8 -6 -4 -11 -1 -11 7 0 8 4 12 8 10 3 -3 12 2 19 10 7 8 16 13
20 10 4 -2 15 4 24 14 11 12 13 21 7 25 -5 4 -12 2 -16 -4 -3 -5 -11 -10 -16
-10 -6 0 -7 5 -3 11 4 7 -2 6 -17 -2 -22 -11 -23 -11 -10 5 12 15 12 16 -5 9
-17 -6 -17 -5 -5 10 12 16 12 17 -5 11 -18 -7 -18 -6 1 17 11 13 13 18 4 11
-23 -18 -32 -2 -12 22 13 15 10 14 -10 -3 -31 -28 -49 -21 -22 9 10 11 14 20
8 20 -5 0 -18 -9 -28 -20 -10 -11 -20 -18 -23 -15 -3 3 3 14 13 25 13 15 15
24 8 31 -8 8 -15 5 -23 -11 -10 -18 -14 -20 -21 -9 -5 8 -9 19 -9 24 0 6 4 4
9 -4 7 -11 11 -10 20 7 11 21 -2 42 -14 22 -3 -5 -11 -10 -17 -10 -6 0 -3 11
6 25 20 31 21 41 1 25 -8 -7 -15 -9 -15 -5 0 4 -7 1 -17 -6 -15 -13 -15 -12
-5 8 19 35 14 48 -9 27 -22 -19 -22 -19 -14 5 5 16 4 21 -4 17 -6 -4 -11 -2
-11 4 0 6 -5 8 -12 3 -8 -4 -7 2 2 17 30 48 40 79 28 86 -6 4 -8 3 -5 -3 8
-12 -17 -36 -26 -26 -4 3 0 18 9 31 16 24 15 25 -3 20 -22 -6 -24 13 -5 48 6
12 9 23 7 26 -2 2 8 18 24 35 27 30 27 32 9 37 -20 5 -20 5 0 34 12 15 22 35
24 42 2 8 12 22 23 32 l20 18 -20 -7 c-13 -4 -5 7 20 31 22 21 40 44 40 51 0
8 9 21 20 30 11 9 13 14 5 10 -10 -4 -9 -2 2 8 10 8 14 17 10 21 -4 4 -2 7 3
5 23 -5 77 15 89 33 8 11 26 26 41 34 33 17 38 17 29 2 -5 -8 -2 -9 10 -5 14
6 15 3 6 -13 -9 -17 -8 -20 9 -20 10 0 21 7 25 15 3 8 13 15 23 14 16 0 16 -1
-2 -9 -11 -5 -14 -9 -6 -9 8 -1 20 -9 28 -18 8 -10 11 -12 7 -4 -5 9 -3 12 4
7 8 -5 9 -13 3 -25 -7 -13 -6 -18 4 -18 8 0 12 4 9 9 -3 4 0 8 5 8 6 0 11 -9
11 -21 0 -13 -4 -18 -12 -13 -7 4 -8 3 -4 -5 6 -9 11 -9 22 0 12 10 15 10 12
-2 -2 -8 -10 -17 -18 -21 -10 -4 -5 -9 18 -13 17 -4 32 -12 32 -17 0 -5 -6 -6
-12 -2 -10 5 -10 4 -2 -5 6 -7 27 -13 45 -13 19 -1 29 -3 22 -5 -8 -3 -7 -10
5 -22 9 -10 20 -16 24 -14 4 2 5 -2 2 -10 -3 -8 -15 -19 -27 -25 -12 -6 -16
-11 -9 -11 7 -1 10 -5 7 -11 -3 -5 0 -8 7 -6 45 14 69 16 62 5 -5 -9 -2 -10
10 -6 9 4 15 3 12 -2 -3 -5 8 -18 25 -29 25 -16 28 -20 14 -26 -9 -3 -21 -4
-26 0 -5 3 -9 -2 -9 -10 0 -14 17 -31 32 -31 3 0 10 -4 15 -9 5 -5 3 -6 -4 -2
-7 4 -13 2 -13 -4 0 -6 -4 -8 -10 -5 -18 11 -11 -1 12 -21 21 -17 21 -17 8 -1
-12 17 -12 18 5 15 16 -2 20 3 19 24 -1 20 3 25 14 20 11 -4 13 -2 7 8 -5 9
-4 11 4 6 6 -4 9 -12 6 -17 -4 -5 -1 -9 5 -9 6 0 8 -4 5 -10 -3 -5 -3 -10 2
-11 4 0 16 -2 26 -4 23 -4 22 3 -5 26 l-23 20 26 -15 c14 -9 29 -13 34 -9 4 5
2 -2 -4 -15 -7 -12 -17 -20 -23 -16 -7 4 -8 -1 -3 -16 6 -19 4 -22 -9 -17 -9
4 -16 1 -16 -5 0 -6 -3 -8 -6 -5 -4 4 -2 12 4 19 8 10 4 20 -16 38 l-27 25 18
-27 c21 -34 21 -38 1 -38 -9 0 -12 5 -8 12 5 7 3 8 -6 3 -10 -6 -10 -11 3 -20
9 -7 15 -14 12 -17 -3 -2 9 -4 26 -3 18 1 35 9 41 18 5 10 13 15 18 12 4 -3
18 11 30 30 12 19 24 35 27 35 3 0 -2 -12 -12 -26 -11 -17 -13 -29 -6 -37 7
-9 -3 -34 -34 -87 -38 -66 -41 -77 -29 -91 8 -9 11 -19 7 -22 -3 -4 -4 -7 0
-7 9 0 70 92 70 106 0 7 5 10 10 7 6 -4 8 1 4 11 -4 10 -3 15 3 11 6 -3 10 -2
10 4 0 5 -4 12 -10 16 -11 7 -39 -45 -33 -63 3 -7 -1 -11 -9 -10 -8 2 -12 -4
-10 -16 2 -11 -1 -15 -8 -11 -6 3 -10 3 -9 -2 3 -18 -1 -36 -8 -29 -18 17 -6
45 63 154 88 136 101 152 50 61 -41 -75 -41 -76 -21 -76 9 0 14 6 11 12 -2 6
2 12 9 12 11 0 12 -5 3 -21 -31 -58 -117 -199 -160 -263 -65 -98 -53 -93 16 5
31 43 62 79 71 79 19 0 19 -3 -7 -46 -37 -63 -3 -20 63 79 98 147 216 350 304
522 44 86 81 155 83 153 2 -1 -33 -76 -78 -164z"/>
<path d="M6674 8105 c-678 -70 -1360 -308 -2024 -705 -343 -205 -636 -436
-911 -716 -421 -431 -683 -904 -754 -1360 -31 -195 -11 -416 51 -577 l19 -48
-48 -87 c-256 -466 -399 -935 -422 -1393 l-6 -124 74 140 c41 77 130 248 199
380 345 663 633 1089 1063 1575 317 358 886 889 1303 1214 34 27 60 51 58 54
-9 9 -240 -70 -364 -124 -355 -155 -721 -393 -1067 -694 -170 -148 -457 -453
-544 -578 -12 -18 -27 -30 -32 -27 -14 9 -11 127 6 235 88 582 603 1260 1334
1755 69 47 126 83 128 82 9 -10 -80 -245 -147 -389 -43 -93 -75 -168 -70 -168
16 0 350 350 419 440 41 52 117 160 169 239 l96 144 75 34 c156 72 392 163
556 216 190 61 401 114 411 104 9 -8 -94 -308 -153 -446 -25 -57 -69 -154
-100 -214 l-55 -110 34 7 c130 26 320 48 478 53 l184 6 -37 -44 c-129 -151
-271 -330 -468 -589 -333 -439 -558 -704 -731 -865 l-67 -62 -148 -6 c-159 -6
-252 -22 -355 -60 -154 -59 -278 -138 -403 -260 -80 -78 -85 -86 -50 -69 135
65 374 122 507 121 135 -1 136 -5 34 -85 -416 -326 -817 -517 -1115 -529 l-84
-3 -64 -99 c-35 -54 -73 -114 -83 -135 -24 -44 -26 -43 114 -58 231 -25 474
33 792 190 316 156 657 402 1016 734 321 295 513 520 969 1131 335 449 572
700 839 886 281 197 527 292 1058 410 56 13 102 26 102 29 0 9 -349 217 -435
259 -158 77 -380 141 -605 176 -146 23 -573 28 -746 10z m-1551 -502 c-3 -8 3
-11 22 -7 15 3 24 1 21 -4 -3 -5 5 -8 19 -7 21 3 23 1 15 -20 -6 -16 -5 -25 3
-28 9 -3 9 -7 0 -17 -6 -7 -9 -18 -7 -25 6 -14 -29 -90 -46 -100 -13 -8 -107
-126 -148 -186 -38 -57 -79 -77 -122 -59 -25 10 -29 17 -24 36 4 14 1 31 -6
39 -7 9 -10 27 -7 45 4 16 2 32 -4 36 -6 4 -5 11 3 21 7 9 12 24 10 35 -2 10
2 18 7 18 6 0 11 9 11 19 0 10 11 29 24 42 13 13 22 28 20 34 -3 6 8 17 23 24
18 8 23 15 15 20 -9 5 1 14 27 26 22 10 48 25 58 34 38 35 97 52 86 24z"/>
<path d="M330 6278 c0 -13 -7 -86 -15 -163 -35 -324 -44 -633 -26 -865 4 -54
6 15 7 185 0 163 7 341 17 450 20 220 30 415 23 415 -3 0 -6 -10 -6 -22z"/>
</g>
</svg>
